<svg xmlns="http://www.w3.org/2000/svg" viewBox="0 0 1024 1024" xml:space="preserve"><path fill="#01B9EF" d="M150.051 837.776c-.685-1.727-1.968-3.454-1.97-5.183-.097-79.327-.112-158.654.056-237.98.006-2.476 1.438-5.552 3.221-7.33 21.826-21.769 43.719-43.475 65.966-64.81 2.753-2.64 7.654-4.275 11.567-4.29 69.16-.25 138.321-.14 207.482-.3 3.058-.008 6.648-1.125 9.087-2.94 35.544-26.458 81.539-.897 86.891 36.141 4.014 27.775-16.759 56.58-45.924 61.083-29.94 4.621-56.94-15.97-62.629-42.944-.423-2.01-3.339-3.495-5.782-5.569-1.338-.447-1.99-.638-2.641-.638-54.417-.015-108.834-.022-163.251.033-1.361.001-2.721.712-4.082 1.091-2.82 1.97-5.958 3.608-8.402 5.966-9.592 9.253-19.147 18.562-28.29 28.252-2.27 2.406-4.149 6.315-4.166 9.544-.3 55.817-.293 111.637-.313 167.456-.003 6.144.759 6.748 7.677 6.748q161.211.014 322.422.005c12.83 0 25.672.297 38.487-.156 38.142-1.35 74.452-10.607 108.403-27.85 79.9-40.582 130.64-104.652 152.073-191.71 7.129-28.957 9.219-58.521 6.845-88.138-4.988-62.228-27.604-117.374-68.653-164.712-42.645-49.177-96.215-79.536-159.77-92.549-9.554-1.956-19.308-2.947-29.016-4.684.158-.503.372-.699.555-.921.022-.026-.121-.278-.2-.285-4.447-.377-8.896-1.055-13.346-1.057-118.536-.058-237.072-.047-355.607-.045-1.498 0-2.995.038-4.492.058l1.015 1.06c-4.657.725-6.536 3.095-6.514 8.133.226 50.159.147 100.32.416 150.478.015 2.933 1.569 6.56 3.63 8.665 14.22 14.525 28.778 28.72 43.2 43.048 3.824 3.8 8.103 5.721 13.754 5.71 76.99-.144 153.98-.155 230.97.013 5.42.012 8.658-2.122 11.472-6.281 8.65-12.783 20.346-21.057 35.622-24.378 28.188-6.127 58.62 14.091 64.233 42.481 6.898 34.883-19.65 65.296-53.827 65.65-21.759.225-37.869-10.336-49.295-28.66-1.571-2.52-4.775-4.021-7.91-6.333-2.005-.441-3.324-.633-4.644-.633-85.828-.015-171.657-.018-257.485.015-1.607 0-3.214.453-4.821.695-2.014-1.366-4.306-2.454-6-4.14-24.901-24.78-49.777-49.586-74.457-74.586-1.966-1.991-3.456-5.45-3.463-8.232-.187-73.76-.157-147.522-.101-221.282.001-1.72.728-3.44 1.949-5.332 141.291-.165 281.75-.156 422.21-.188 1.59 0 3.177-.524 4.766-.804 19.062 2.432 38.375 3.654 57.139 7.531 50.141 10.361 95.498 31.81 135.802 63.33 62.255 48.69 104.049 110.994 123.108 188.078 6.773 27.396 10.088 55.273 9.723 83.41-1.078 83.012-25.883 157.742-80.439 221.224-47.573 55.357-105.856 94.504-177.517 111.525-18.624 4.423-37.96 5.847-57.72 8.341-2.739-.405-4.724-.59-6.71-.59-140.216-.013-280.433-.01-420.649-.02-3.218 0-6.436-.14-9.655-.214m389.881-369.15c5.635 5.09 12.28 6.943 19.772 6.377 13.12-.992 23.14-13.363 22.283-27.633-.747-12.44-13.415-24.072-25.621-23.099-10.93.872-19.402 5.847-23.343 16.563-3.808 10.357-1.465 19.53 6.91 27.791M459.398 575.06c9.42 9.187 21.351 10.885 31.84 4.53 9.566-5.796 14.142-17.405 11.113-28.015-3.002-10.52-10.153-16.657-20.653-18.428-10.314-1.739-20.764 3.766-25.67 12.612-5.254 9.473-4.208 19.887 3.37 29.301"/><path fill="#00B9EF" d="M566.963 283.184c23.262.628 45.879 4.999 67.219 14.103 61.855 26.387 103.781 71.435 124.19 135.76 8.754 27.594 10.212 56.043 7.826 84.79-3.245 39.112-16.224 74.685-39.435 106.23-31.758 43.163-73.785 71.311-126.341 82.589-13.524 2.902-27.65 4.102-41.507 4.16-87.314.363-174.63.184-261.944.183-6.489 0-7.965-1.43-7.97-7.79q-.019-20.747-.005-41.492c.005-6.453 1.308-7.72 7.94-7.72 85.815-.005 171.63-.19 257.445.052 72.199.204 130.274-50.244 147.411-112.018 13.68-49.312 7.43-96.275-22.615-138.486-24.061-33.802-57.089-54.48-98.194-61.512-7.813-1.337-15.843-1.95-23.774-1.962-86.315-.131-172.63-.076-258.946-.072-8.452 0-9.273-.845-9.271-9.496.003-13.497-.072-26.995.083-40.49.022-1.979 1.124-3.945 2.589-5.992 90.917-.058 180.971-.037 271.025-.057 1.425 0 2.85-.509 4.274-.78"/><path fill="#00A5EB" d="M576.513 155.084c-1.133.357-2.72.881-4.31.881-140.46.032-280.919.023-421.856.004-.03-.375.417-.738 1.603-1.063 3.545-.152 6.351-.34 9.157-.529 1.332-.02 2.664-.04 4.75.18 23.966.299 47.177.364 70.388.394.62.001 1.24-.367 1.86-.564.7-.016 1.398-.032 2.746.168 2.518.08 4.387-.055 6.255-.192.4-.012.798-.024 1.851.198 5.819.095 10.983-.045 16.148-.184.7-.015 1.4-.03 2.803.19 5.869.097 11.033-.041 16.197-.18 1.656-.014 3.313-.028 5.74.194 6.601.092 12.43-.05 18.26-.193 1.332-.015 2.663-.03 4.676.17 2.23.086 3.78-.043 5.328-.173.398-.012.797-.025 1.848.193 5.151.094 9.65-.042 14.15-.178 1.65-.023 3.301-.045 5.55.136 1.22.086 1.842-.03 2.464-.148.695-.016 1.39-.031 2.766.182 3.526.095 6.373-.04 9.219-.173 4.294-.015 8.588-.031 13.689.186 4.641.094 8.476-.046 12.31-.186 1.333-.017 2.666-.035 4.756.182 11.834.299 22.911.432 33.988.395 5.086-.017 10.172-.367 15.258-.565 1.332-.02 2.664-.04 4.751.173 5.586.094 10.416-.044 15.246-.183.7-.016 1.4-.033 2.808.179 7.203.087 13.698-.053 20.193-.194a13.3 13.3 0 0 1 2.617.168c1.156.088 1.779-.027 2.401-.141.395-.016.789-.032 1.762.167 2.127.085 3.676-.045 5.225-.175 2.637-.018 5.274-.037 8.664.17 2.946.094 5.14-.037 7.333-.168 2.967-.015 5.934-.03 9.605.17 1.935.086 3.167-.04 4.399-.166 2.967-.016 5.934-.03 9.647.174 2.613.092 4.48-.036 6.349-.164.396-.012.793-.025 1.716.167 1.45.087 2.371-.03 3.293-.147 1.33-.015 2.66-.03 4.75.186 5.61.197 10.46.163 15.312.129.368-.005.737-.009 1.703.102.816.07 1.034.024 1.252-.022 4.308.058 8.616.115 13.38.25"/><path fill="#01A7EB" d="M150.373 838.061c2.897-.21 6.115-.07 9.333-.07 140.216.01 280.433.006 420.65.019 1.985 0 3.97.185 6.277.538-4.34.324-9.001.453-13.663.453-138.65.01-277.3.008-415.95-.025-2.109 0-4.217-.41-6.647-.915"/><path fill="#00A4EA" d="M213.709 211.188c-.784-.419-1.122-.772-1.46-1.126 1.497-.02 2.994-.058 4.492-.058 118.535-.002 237.071-.013 355.607.045 4.45.002 8.899.68 13.347 1.057.078.007.22.259.199.285-.183.222-.397.418-.914.697-79.362-.27-158.412-.692-237.462-.925-44.454-.132-88.91.05-133.81.024"/><path fill="#00A1E9" d="M566.502 283.109c-.964.346-2.388.855-3.813.855-90.054.02-180.108-.001-270.67-.045 1.065-.324 2.635-.882 4.206-.883 89.939-.03 179.877-.014 270.277.073"/><path fill="#00A1E8" d="M232.517 469.837c1.155-.354 2.762-.806 4.369-.807 85.828-.033 171.657-.03 257.485-.015 1.32 0 2.639.192 4.274.558-.346.317-1.008.417-1.67.417-88.002-.009-176.004-.025-264.458-.153"/><path fill="#00A1E9" d="M248.507 564.119c.896-.358 2.256-1.069 3.617-1.07 54.417-.055 108.834-.048 163.25-.033.652 0 1.304.191 2.273.555-33.082.326-66.48.395-99.878.45-22.932.036-45.865.052-69.262.098"/><path fill="#66D8F6" d="M237.649 154.242c-.164.342-.784.71-1.404.71-23.211-.031-46.422-.096-69.988-.372a852 852 0 0 1 28.534-.565c14.133-.039 28.267.048 42.858.227m196.002.018c-4.63.347-9.716.697-14.802.714-11.077.037-22.154-.096-33.59-.37 15.74-.304 31.839-.4 48.392-.345m42.998-.02c-6.039.286-12.534.426-19.387.359 6.07-.307 12.5-.406 19.387-.36m-168.999.004c-5.374.289-11.204.431-17.391.365 5.406-.31 11.17-.41 17.39-.365m-23.999 0c-4.71.284-9.873.422-15.393.35 4.742-.307 9.84-.4 15.393-.35m-19-.009c-4.71.283-9.874.423-15.394.348 4.743-.307 9.84-.4 15.394-.348m295.166.307c-4.49.248-9.34.282-14.553.116 4.49-.243 9.34-.286 14.553-.116m-106.166-.289c-4.376.287-9.206.425-14.392.356 4.409-.307 9.174-.405 14.393-.356m-119.997.001c-4.047.284-8.546.42-13.399.347 4.08-.305 8.513-.4 13.399-.347m46.002 0c-3.385.285-7.22.425-11.405.358 3.418-.305 7.186-.404 11.405-.358m-218.976-.013c-2.379.327-5.185.515-8.432.605 2.374-.314 5.189-.529 8.431-.605m192.985.011c-2.404.28-5.25.415-8.43.344 2.44-.3 5.214-.395 8.43-.343m151.01.006c-1.76.279-3.954.41-6.46.34 1.8-.295 3.914-.392 6.46-.34m30.008.01c-1.443.28-3.311.408-5.48.342 1.484-.294 3.27-.394 5.48-.342m-288.004-.044c-1.44.277-3.309.413-5.477.352 1.483-.296 3.266-.395 5.477-.352m242.012.034c-1.13.276-2.678.406-4.51.343 1.176-.291 2.634-.39 4.51-.343m-171-.017c-1.13.275-2.679.404-4.51.34 1.175-.291 2.633-.388 4.51-.34m201.014.02c-.825.275-2.057.401-3.549.34.874-.288 2.008-.388 3.55-.34m21.022.026c-.533.27-1.455.387-2.607.323.586-.279 1.401-.377 2.607-.323m-57.969-.012c-.257.251-.88.366-1.69.306.317-.264.82-.354 1.69-.306m-140.002-.019c-.257.25-.878.367-1.687.307.316-.264.82-.353 1.687-.307m221.244.44c-.085.185-.303.23-.843.183.022-.17.365-.247.843-.183"/><path fill="none" d="M539.671 468.373c-8.113-8.008-10.456-17.182-6.648-27.539 3.941-10.716 12.414-15.691 23.343-16.563 12.206-.973 24.874 10.66 25.62 23.099.857 14.27-9.163 26.64-22.282 27.633-7.491.566-14.137-1.288-20.033-6.63"/><path fill="none" d="M459.157 574.792c-7.336-9.146-8.382-19.56-3.128-29.033 4.906-8.846 15.356-14.35 25.67-12.612 10.5 1.77 17.65 7.907 20.653 18.428 3.029 10.61-1.547 22.22-11.113 28.015-10.489 6.355-22.42 4.657-32.082-4.798"/></svg>